<svg width="33" height="13" viewBox="0 0 33 13" fill="none" xmlns="http://www.w3.org/2000/svg">
    <path d="M15.0467 6.20687V9.96897H13.8633V0.678761H17.0005C17.7956 0.678761 18.4736 0.946151 19.0283 1.48093C19.5953 2.01571 19.8788 2.66863 19.8788 3.43971C19.8788 4.22944 19.5953 4.88236 19.0283 5.41092C18.4797 5.93948 17.8017 6.20065 17.0005 6.20065H15.0467V6.20687ZM15.0467 1.82294V5.06269H17.0251C17.4936 5.06269 17.888 4.90102 18.1962 4.58388C18.5105 4.26675 18.6708 3.88121 18.6708 3.44592C18.6708 3.01686 18.5105 2.63754 18.1962 2.3204C17.888 1.99083 17.4997 1.82915 17.0251 1.82915H15.0467V1.82294Z" fill="#3C4043"/>
    <path d="M22.9735 3.40199C23.8487 3.40199 24.539 3.63829 25.0445 4.11088C25.5499 4.58348 25.8026 5.23019 25.8026 6.05101V9.96856H24.6746V9.08556H24.6253C24.1384 9.8131 23.4851 10.1738 22.6715 10.1738C21.975 10.1738 21.3957 9.96856 20.9272 9.55193C20.4588 9.13531 20.2246 8.61918 20.2246 7.99735C20.2246 7.3382 20.4711 6.81586 20.9642 6.43033C21.4573 6.03857 22.1168 5.8458 22.9365 5.8458C23.6392 5.8458 24.2185 5.97639 24.6685 6.23756V5.96395C24.6685 5.54732 24.5082 5.19909 24.1816 4.90683C23.8549 4.61457 23.4728 4.47155 23.0352 4.47155C22.3757 4.47155 21.8518 4.75137 21.4696 5.31724L20.428 4.6581C21.0012 3.81862 21.8518 3.40199 22.9735 3.40199ZM21.445 8.016C21.445 8.32692 21.5744 8.58809 21.8394 8.7933C22.0983 8.9985 22.4065 9.10421 22.7578 9.10421C23.257 9.10421 23.7008 8.91766 24.0891 8.54456C24.4774 8.17146 24.6746 7.73618 24.6746 7.23249C24.3048 6.94023 23.7933 6.79099 23.1338 6.79099C22.653 6.79099 22.2524 6.90914 21.9319 7.13922C21.6052 7.38173 21.445 7.67399 21.445 8.016Z" fill="#3C4043"/>
    <path d="M32.2366 3.60699L28.292 12.7604H27.0716L28.5385 9.55795L25.9375 3.60699H27.2257L29.0994 8.17125H29.124L30.9484 3.60699H32.2366Z" fill="#3C4043"/>
    <path d="M10.3383 5.44753C10.3383 5.05827 10.3038 4.68579 10.2397 4.32761H5.2793V6.37966L8.13607 6.38029C8.0202 7.06306 7.64731 7.6451 7.07595 8.03312V9.36447H8.77646C9.76939 8.43731 10.3383 7.06679 10.3383 5.44753Z" fill="#4285F4"/>
    <path d="M7.07535 8.03335C6.60199 8.35546 5.99242 8.54388 5.27931 8.54388C3.90177 8.54388 2.73317 7.6074 2.31467 6.34507H0.560547V7.71809C1.4296 9.45798 3.21578 10.6519 5.27931 10.6519C6.70554 10.6519 7.90372 10.1787 8.77585 9.36408L7.07535 8.03335Z" fill="#34A853"/>
    <path d="M2.15044 5.3265C2.15044 4.97205 2.20899 4.62943 2.31562 4.30731V2.9343H0.561492C0.202161 3.65377 0 4.46588 0 5.3265C0 6.18712 0.202778 6.99924 0.561492 7.7187L2.31562 6.34569C2.20899 6.02358 2.15044 5.68095 2.15044 5.3265Z" fill="#FABB05"/>
    <path d="M5.27931 2.10821C6.05776 2.10821 6.75485 2.37871 7.30524 2.90727L8.81222 1.38813C7.89694 0.528132 6.70369 0.00019455 5.27931 0.00019455C3.21639 0.00019455 1.4296 1.19412 0.560547 2.93401L2.31467 4.30702C2.73317 3.0447 3.90177 2.10821 5.27931 2.10821Z" fill="#E94235"/>
</svg>
